<svg width="59" height="59" viewBox="0 0 59 59" fill="none" xmlns="http://www.w3.org/2000/svg">
<path fill-rule="evenodd" clip-rule="evenodd" d="M20.8717 23.4927H32.1426C33.633 23.4927 34.7973 24.7036 34.7973 26.194V33.739C34.7973 35.2293 33.633 36.4402 32.1426 36.4402H20.8717C19.3813 36.4402 18.1704 35.2293 18.1704 33.739V26.194C18.1704 24.7036 19.3813 23.4927 20.8717 23.4927ZM26.5072 28.6624H23.3867V26.8926H26.5072C27.3455 26.8926 28.0907 27.172 28.6961 27.7775C29.3016 28.3829 29.581 29.1281 29.581 29.9665C29.581 30.8514 29.3016 31.55 28.6961 32.1554C28.0907 32.7609 27.3455 33.0869 26.5072 33.0869H23.3867V29.0816H25.1565V31.3171H26.5072C26.8797 31.3171 27.1592 31.1774 27.4386 30.8979C27.6715 30.6651 27.8112 30.3391 27.8112 29.9665C27.8112 29.5939 27.6715 29.3144 27.4386 29.035C27.1592 28.7555 26.8797 28.6624 26.5072 28.6624Z" fill="#970097"/>
<path fill-rule="evenodd" clip-rule="evenodd" d="M38.882 32.2015L38.8354 27.4044C38.8354 26.5195 38.556 26.4263 38.1368 26.6126C38.0902 26.6126 38.0902 26.6126 38.0436 26.6592C37.8108 26.7523 37.5313 26.9386 37.2985 27.1249L35.2026 28.5221V31.6892L37.5313 33.0398C38.4162 33.5521 38.8354 33.7384 38.882 32.2015Z" fill="#900090"/>
<path fill-rule="evenodd" clip-rule="evenodd" d="M0 0.577908C10.2463 0.671055 22.4487 -0.44672 32.6949 0.205316C68.9295 2.53401 67.1597 57.9571 30.6457 57.631L1.95611 57.3516L13.8325 37.0453C50.8122 66.6198 59.2421 -1.98366 16.9064 20.8842L0 0.577908Z" fill="url(#paint0_linear)"/>
<path fill-rule="evenodd" clip-rule="evenodd" d="M0 0.578134C10.2463 0.671282 20.5391 0.205542 30.7388 0.857577C67.02 3.18628 65.2502 58.6093 28.7362 58.2833L0 58.0039L13.8325 37.0456C50.8122 66.62 57.286 -1.3314 14.9968 21.5364L0 0.578134Z" fill="url(#paint1_linear)"/>
<path fill-rule="evenodd" clip-rule="evenodd" d="M23.377 28.6159L26.544 28.6625C28.5932 28.8488 28.2206 32.109 25.1468 31.3172V29.1282L23.377 29.0816V28.6159Z" fill="#FF6600"/>
<defs>
<linearGradient id="paint0_linear" x1="60.1452" y1="13.5278" x2="-21.0142" y2="-1.79783" gradientUnits="userSpaceOnUse">
<stop stop-color="#9C0E9C"/>
<stop offset="1" stop-color="#660066"/>
</linearGradient>
<linearGradient id="paint1_linear" x1="12.1488" y1="39.6183" x2="68.3715" y2="39.7315" gradientUnits="userSpaceOnUse">
<stop stop-color="#990099"/>
<stop offset="0.309804" stop-color="#660066"/>
<stop offset="0.34902" stop-color="#990099"/>
<stop offset="1" stop-color="#660066"/>
</linearGradient>
</defs>
</svg>
